<?xml version="1.0" encoding="iso-8859-1"?>
<!-- Generator: Adobe Illustrator 16.0.0, SVG Export Plug-In . SVG Version: 6.00 Build 0)  -->
<!DOCTYPE svg PUBLIC "-//W3C//DTD SVG 1.1//EN" "http://www.w3.org/Graphics/SVG/1.1/DTD/svg11.dtd">
<svg xmlns="http://www.w3.org/2000/svg" xmlns:xlink="http://www.w3.org/1999/xlink" version="1.1" id="Capa_1" x="0px" y="0px" width="512px" height="512px" viewBox="0 0 50.304 50.304" style="enable-background:new 0 0 50.304 50.304;" xml:space="preserve">
<g>
	<path d="M50.304,25.969c0-0.166-1.081-16.678-10.367-16.678c-0.005,0-0.005,0-0.005,0c-0.292,0.007-0.552,0.078-0.825,0.12   c-1.28-4.399-3.833-9.064-8.947-9.064c-2.345,0-4.146,0.994-5.542,2.482c-1.375-1.441-3.127-2.422-5.389-2.482   c-4.984,0-7.536,4.614-8.84,8.989c-0.124-0.007-0.236-0.044-0.36-0.044h-0.002C1.537,9.574,0,25.803,0,25.969   c0,4.062,2.402,7.549,5.844,9.196c-1.604,2.372-2.338,5.36-0.277,8.846c2.34,3.946,5.381,5.946,9.036,5.946   c2.019,0,3.787-0.632,5.345-1.192c1.629-0.582,3.165-1.134,5.179-1.134c2.032,0,3.601,0.55,5.266,1.129   c1.64,0.575,3.339,1.168,5.335,1.168h0.003c3.709,0,6.738-2.023,9.005-6.013c1.994-3.514,1.385-6.479-0.109-8.837   C47.973,33.397,50.304,29.964,50.304,25.969z M30.158,6.187c2.703,0,4.38,8.424,4.38,10.84c0,2.414-1.962,4.382-4.38,4.382   s-4.379-1.969-4.379-4.382C25.778,14.61,27.458,6.187,30.158,6.187z M19.259,6.187c2.632,0.068,4.377,8.424,4.377,10.84   c0,2.414-1.961,4.382-4.377,4.382c-2.42,0-4.382-1.969-4.382-4.382C14.877,14.61,16.629,6.117,19.259,6.187z M5.835,25.969   c0-2.418,2.597-10.779,4.379-10.841c1.783-0.06,4.38,8.421,4.38,10.841c0,2.412-1.962,4.378-4.38,4.378S5.835,28.381,5.835,25.969z    M39.654,41.03c-3.638,6.403-6.506,0.76-14.533,0.76c-8.028,0-10.699,5.707-14.537-0.76c-2-3.388,4.625-6.029,6.76-8.021   c2.662-2.488,3.319-7.01,7.777-7.01c4.25,0,5.16,4.448,7.818,6.766C35.301,34.823,41.807,37.246,39.654,41.03z M40.089,30.347   c-2.422,0-4.384-1.966-4.384-4.378c0-2.418,2.192-10.779,4.384-10.841c2.188-0.058,4.375,8.421,4.375,10.841   C44.464,28.381,42.503,30.347,40.089,30.347z" fill="#708ce6"/>
</g>
<g>
</g>
<g>
</g>
<g>
</g>
<g>
</g>
<g>
</g>
<g>
</g>
<g>
</g>
<g>
</g>
<g>
</g>
<g>
</g>
<g>
</g>
<g>
</g>
<g>
</g>
<g>
</g>
<g>
</g>
</svg>
